<?xml version="1.0" encoding="UTF-8"?>
<svg version="1.1" xmlns="http://www.w3.org/2000/svg" width="172" height="47">
<path d="M0 0 C56.76 0 113.52 0 172 0 C172 15.51 172 31.02 172 47 C115.24 47 58.48 47 0 47 C0 31.49 0 15.98 0 0 Z " fill="#FBFCFB" transform="translate(0,0)"/>
<path d="M0 0 C3.43516427 2.69905764 4.57251226 6.15794123 5.1875 10.375 C4.63411768 14.16962159 3.05014687 16.35605723 0.75 19.375 C-1.38093906 18.30953047 -2.61587557 17.08340281 -4.25 15.375 C-4.58 16.035 -4.91 16.695 -5.25 17.375 C-8.25 19.375 -8.25 19.375 -11.25 20.375 C-15.12969762 17.14191865 -16.50060462 14.3709692 -17.25 9.375 C-16.73327865 6.39846974 -15.85328457 3.93905436 -14.25 1.375 C-10.02608293 -1.44094471 -4.81257658 -1.33682683 0 0 Z " fill="#9FBBDC" transform="translate(158.25,10.625)"/>
<path d="M0 0 C0.33 0 0.66 0 1 0 C1 2.97 1 5.94 1 9 C2.134375 8.814375 3.26875 8.62875 4.4375 8.4375 C6.2009375 8.2209375 6.2009375 8.2209375 8 8 C9 9 9 9 9.09765625 11.50390625 C9.08605469 12.51324219 9.07445313 13.52257812 9.0625 14.5625 C9.05347656 15.57441406 9.04445313 16.58632813 9.03515625 17.62890625 C9.02355469 18.41136719 9.01195313 19.19382812 9 20 C9.66 20 10.32 20 11 20 C11 20.66 11 21.32 11 22 C6.56255461 22.05793591 2.12520611 22.09357467 -2.3125 22.125 C-3.57513672 22.14175781 -4.83777344 22.15851562 -6.13867188 22.17578125 C-7.95141602 22.18544922 -7.95141602 22.18544922 -9.80078125 22.1953125 C-10.91622314 22.20578613 -12.03166504 22.21625977 -13.1809082 22.22705078 C-16 22 -16 22 -19 20 C-18.75 17.625 -18.75 17.625 -18 15 C-15.10189884 12.90137502 -13.71621139 13 -10 13 C-10 11.68 -10 10.36 -10 9 C-11.65 9 -13.3 9 -15 9 C-15 9.99 -15 10.98 -15 12 C-15.99 12 -16.98 12 -18 12 C-17.34 10.68 -16.68 9.36 -16 8 C-12.625 7.875 -12.625 7.875 -9 8 C-7 10 -7 10 -6.8046875 11.9453125 C-6.86979167 13.96354167 -6.93489583 15.98177083 -7 18 C-6.01 18 -5.02 18 -4 18 C-4 18.66 -4 19.32 -4 20 C-3.01 20 -2.02 20 -1 20 C-1.00785522 19.14450562 -1.00785522 19.14450562 -1.01586914 18.27172852 C-1.03658221 15.70199677 -1.0496419 13.13228253 -1.0625 10.5625 C-1.07087891 9.66466797 -1.07925781 8.76683594 -1.08789062 7.84179688 C-1.09272461 6.56079102 -1.09272461 6.56079102 -1.09765625 5.25390625 C-1.10551147 4.06776733 -1.10551147 4.06776733 -1.11352539 2.85766602 C-1 1 -1 1 0 0 Z " fill="#DDDFDA" transform="translate(78,14)"/>
<path d="M0 0 C10 0 10 0 13 2 C13.375 4.9375 13.375 4.9375 13 8 C12.01 8.99 11.02 9.98 10 11 C10.99 13.97 11.98 16.94 13 20 C11.68 20 10.36 20 9 20 C8.34 17.03 7.68 14.06 7 11 C6.34 11 5.68 11 5 11 C5 13.97 5 16.94 5 20 C3.68 20 2.36 20 1 20 C0.67 13.4 0.34 6.8 0 0 Z " fill="#4D4D49" transform="translate(43,15)"/>
<path d="M0 0 C0 5.28 0 10.56 0 16 C-0.66 16 -1.32 16 -2 16 C-2 14.68 -2 13.36 -2 12 C-3.3921875 12.3403125 -3.3921875 12.3403125 -4.8125 12.6875 C-8 13 -8 13 -9.875 12.0625 C-11.66024755 8.78954616 -11.52943104 5.6379476 -11 2 C-8.7682656 -2.6029522 -4.24413888 -0.76533652 0 0 Z " fill="#2B272A" transform="translate(135,23)"/>
<path d="M0 0 C3.43516427 2.69905764 4.57251226 6.15794123 5.1875 10.375 C4.63411768 14.16962159 3.05014687 16.35605723 0.75 19.375 C-1.25 18.375 -1.25 18.375 -2.25 15.375 C-0.93 15.705 0.39 16.035 1.75 16.375 C2.08 13.735 2.41 11.095 2.75 8.375 C0.77 10.025 -1.21 11.675 -3.25 13.375 C-3.91 12.715 -4.57 12.055 -5.25 11.375 C-4.59 10.715 -3.93 10.055 -3.25 9.375 C-2.22695052 7.72238161 -1.22383946 6.05708635 -0.25 4.375 C-1.03375 4.890625 -1.8175 5.40625 -2.625 5.9375 C-3.49125 6.411875 -4.3575 6.88625 -5.25 7.375 C-5.91 7.045 -6.57 6.715 -7.25 6.375 C-7.58 7.035 -7.91 7.695 -8.25 8.375 C-10.3125 6.0625 -10.3125 6.0625 -12.25 3.375 C-11.92 2.385 -11.59 1.395 -11.25 0.375 C-7.69998488 -1.40000756 -3.76437925 -1.0456609 0 0 Z " fill="#BECEE1" transform="translate(158.25,10.625)"/>
<path d="M0 0 C3.375 -0.125 3.375 -0.125 7 0 C9.38771735 2.38771735 9.31289224 3.22854514 9.5625 6.5 C9.81036169 9.87644563 9.81036169 9.87644563 11 13 C9.23086176 13.22226864 7.45955629 13.42733873 5.6875 13.625 C4.20830078 13.79902344 4.20830078 13.79902344 2.69921875 13.9765625 C0 14 0 14 -3 12 C-2.75 9.625 -2.75 9.625 -2 7 C0.89810116 4.90137502 2.28378861 5 6 5 C6 3.68 6 2.36 6 1 C4.35 1 2.7 1 1 1 C1 1.99 1 2.98 1 4 C0.01 4 -0.98 4 -2 4 C-1.34 2.68 -0.68 1.36 0 0 Z " fill="#31282F" transform="translate(62,22)"/>
<path d="M0 0 C1.875 1.25 1.875 1.25 3 3 C3 4.32 3 5.64 3 7 C0.03 7 -2.94 7 -6 7 C-5.67 8.32 -5.34 9.64 -5 11 C-1.37114676 11.15149298 -1.37114676 11.15149298 2 10 C1.67 10.99 1.34 11.98 1 13 C-1.75 13.75 -1.75 13.75 -5 14 C-7.375 12.5 -7.375 12.5 -9 10 C-9.42841969 6.51143969 -9.66830867 4.15097604 -7.875 1.0625 C-5.11019567 -0.50422245 -3.11811483 -0.38976435 0 0 Z " fill="#322533" transform="translate(117,22)"/>
<path d="M0 0 C1.875 1.25 1.875 1.25 3 3 C3 4.32 3 5.64 3 7 C0.03 7 -2.94 7 -6 7 C-5.67 8.32 -5.34 9.64 -5 11 C-1.37114676 11.15149298 -1.37114676 11.15149298 2 10 C1.67 10.99 1.34 11.98 1 13 C-1.75 13.75 -1.75 13.75 -5 14 C-7.375 12.5 -7.375 12.5 -9 10 C-9.42841969 6.51143969 -9.66830867 4.15097604 -7.875 1.0625 C-5.11019567 -0.50422245 -3.11811483 -0.38976435 0 0 Z " fill="#322533" transform="translate(101,22)"/>
<path d="M0 0 C1 1 1 1 1.1875 3.4375 C1 6 1 6 -1 8 C-0.505 8.556875 -0.01 9.11375 0.5 9.6875 C2.29268598 12.45122422 2.58006212 13.76822531 2 17 C0.4375 18.875 0.4375 18.875 -2 20 C-5.75 19.6875 -5.75 19.6875 -9 19 C-9.33 17.35 -9.66 15.7 -10 14 C-9.01 14 -8.02 14 -7 14 C-6.67 15.32 -6.34 16.64 -6 18 C-4.68 17.67 -3.36 17.34 -2 17 C-1.66602213 14.12586875 -1.66602213 14.12586875 -2 11 C-3.88077873 9.08743288 -3.88077873 9.08743288 -6 8 C-5.01 7.67 -4.02 7.34 -3 7 C-3 5.02 -3 3.04 -3 1 C-3.99 1 -4.98 1 -6 1 C-6.33 2.32 -6.66 3.64 -7 5 C-7.99 5 -8.98 5 -10 5 C-9.625 2.5625 -9.625 2.5625 -9 0 C-5.90842747 -1.54578627 -3.31526981 -0.60277633 0 0 Z " fill="#191328" transform="translate(22,16)"/>
<path d="M0 0 C0 6.93 0 13.86 0 21 C0.99 21.33 1.98 21.66 3 22 C-0.3 22 -3.6 22 -7 22 C-6.01 21.67 -5.02 21.34 -4 21 C-4 14.73 -4 8.46 -4 2 C-4.99 1.67 -5.98 1.34 -7 1 C-4.50935112 0.31292445 -2.62113708 0 0 0 Z " fill="#636266" transform="translate(36,14)"/>
<path d="M0 0 C0.33 0 0.66 0 1 0 C1 2.97 1 5.94 1 9 C2.134375 8.814375 3.26875 8.62875 4.4375 8.4375 C6.2009375 8.2209375 6.2009375 8.2209375 8 8 C9.81115956 9.81115956 9.38199448 12.61278227 9.5625 15.0625 C9.64628906 16.16722656 9.73007813 17.27195312 9.81640625 18.41015625 C9.87699219 19.26480469 9.93757813 20.11945312 10 21 C8.68 20.67 7.36 20.34 6 20 C6 16.7 6 13.4 6 10 C4.68 10.33 3.36 10.66 2 11 C1.67 14.3 1.34 17.6 1 21 C0.01 20.67 -0.98 20.34 -2 20 C-1.86177801 16.85378318 -1.71314916 13.70814434 -1.5625 10.5625 C-1.52318359 9.66466797 -1.48386719 8.76683594 -1.44335938 7.84179688 C-1.40146484 6.98779297 -1.35957031 6.13378906 -1.31640625 5.25390625 C-1.27974854 4.46314697 -1.24309082 3.6723877 -1.20532227 2.85766602 C-1 1 -1 1 0 0 Z " fill="#040319" transform="translate(78,14)"/>
<path d="M0 0 C0.66 0 1.32 0 2 0 C1.34 2.31 0.68 4.62 0 7 C1.65 5.68 3.3 4.36 5 3 C5.80967438 5.91482778 6.21845993 7.46113217 5.0625 10.3125 C4.711875 10.869375 4.36125 11.42625 4 12 C0.625 11.6875 0.625 11.6875 -3 11 C-3.66 10.01 -4.32 9.02 -5 8 C-5.99 7.34 -6.98 6.68 -8 6 C-5.76019711 2.64029566 -4.65777032 2.31304575 -1 1 C-0.67 0.67 -0.34 0.34 0 0 Z " fill="#74B6FF" transform="translate(156,15)"/>
<path d="M0 0 C1.32 0.66 2.64 1.32 4 2 C4.09765625 8.15234375 4.09765625 8.15234375 4 10 C3 11 3 11 0.4375 11.0625 C-0.366875 11.041875 -1.17125 11.02125 -2 11 C-3.39935013 8.20129973 -3.25265405 6.09501208 -3 3 C-1.5 1.125 -1.5 1.125 0 0 Z " fill="#E4E5E0" transform="translate(129,23)"/>
<path d="M0 0 C0.99 0 1.98 0 3 0 C5.39662675 4.19409682 6.70668044 7.1541913 6 12 C4 15.375 4 15.375 2 18 C0 17 0 17 -1 14 C0.32 14.33 1.64 14.66 3 15 C3.33 12.36 3.66 9.72 4 7 C1.03 9.475 1.03 9.475 -2 12 C-2.66 11.34 -3.32 10.68 -4 10 C-3.34 9.34 -2.68 8.68 -2 8 C0.1519437 4.77208445 0.20086443 3.71599191 0 0 Z " fill="#7694B8" transform="translate(157,12)"/>
<path d="M0 0 C1.32 0.33 2.64 0.66 4 1 C4.1875 3.8125 4.1875 3.8125 4 7 C3.01 7.99 2.02 8.98 1 10 C1.99 12.97 2.98 15.94 4 19 C2.68 19 1.36 19 0 19 C-0.99 15.7 -1.98 12.4 -3 9 C-2.01 8.34 -1.02 7.68 0 7 C0.25015873 3.41642759 0.25015873 3.41642759 0 0 Z " fill="#272028" transform="translate(52,16)"/>
<path d="M0 0 C3 1 3 1 4.25 2.6875 C5.23749311 5.73227042 4.7002014 7.91911384 4 11 C0.77195053 8.18847304 -0.6588327 6.32145242 -1 2 C-0.67 1.34 -0.34 0.68 0 0 Z " fill="#94B7DF" transform="translate(144,12)"/>
<path d="M0 0 C0.99 0 1.98 0 3 0 C3 5.28 3 10.56 3 16 C2.34 16 1.68 16 1 16 C1 14.68 1 13.36 1 12 C0.34 11.67 -0.32 11.34 -1 11 C-0.67 10.67 -0.34 10.34 0 10 C0.07205511 8.31391034 0.08386068 6.62499341 0.0625 4.9375 C0.05347656 4.01839844 0.04445312 3.09929688 0.03515625 2.15234375 C0.02355469 1.44207031 0.01195312 0.73179688 0 0 Z " fill="#020017" transform="translate(132,23)"/>
<path d="M0 0 C3.875 0.875 3.875 0.875 5 2 C5.04063832 3.66617115 5.042721 5.33388095 5 7 C3.35 7.33 1.7 7.66 0 8 C0 5.36 0 2.72 0 0 Z " fill="#FDF9EE" transform="translate(48,16)"/>
<path d="M0 0 C5.45454545 -0.36363636 5.45454545 -0.36363636 7.875 1.25 C9 3 9 3 9 7 C6.03 7 3.06 7 0 7 C0 6.67 0 6.34 0 6 C1.98 6 3.96 6 6 6 C6 4.68 6 3.36 6 2 C4.02 2.33 2.04 2.66 0 3 C0 2.01 0 1.02 0 0 Z " fill="#2D2934" transform="translate(111,22)"/>
<path d="M0 0 C5.45454545 -0.36363636 5.45454545 -0.36363636 7.875 1.25 C9 3 9 3 9 7 C6.03 7 3.06 7 0 7 C0 6.67 0 6.34 0 6 C1.98 6 3.96 6 6 6 C6 4.68 6 3.36 6 2 C4.02 2.33 2.04 2.66 0 3 C0 2.01 0 1.02 0 0 Z " fill="#2D2934" transform="translate(95,22)"/>
<path d="M0 0 C1.66611905 -0.042721 3.33382885 -0.04063832 5 0 C6.81115956 1.81115956 6.38199448 4.61278227 6.5625 7.0625 C6.64628906 8.16722656 6.73007813 9.27195312 6.81640625 10.41015625 C6.87699219 11.26480469 6.93757813 12.11945312 7 13 C5.68 12.67 4.36 12.34 3 12 C3 8.7 3 5.4 3 2 C2.01 2 1.02 2 0 2 C0 1.34 0 0.68 0 0 Z " fill="#0B1118" transform="translate(81,22)"/>
<path d="M0 0 C0 1.98 0 3.96 0 6 C-1.98 6 -3.96 6 -6 6 C-5.625 3.5625 -5.625 3.5625 -5 1 C-3 0 -3 0 0 0 Z " fill="#E0EDED" transform="translate(68,28)"/>
<path d="M0 0 C0.66 0.33 1.32 0.66 2 1 C1.125 6.75 1.125 6.75 0 9 C-1.32 8.67 -2.64 8.34 -4 8 C-3.40072174 4.64404172 -2.15377564 2.62198774 0 0 Z " fill="#E5F1FF" transform="translate(160,18)"/>
<path d="M0 0 C2.0625 0.4375 2.0625 0.4375 4 1 C4 2.32 4 3.64 4 5 C2.02 5 0.04 5 -2 5 C-1.125 1.125 -1.125 1.125 0 0 Z " fill="#F7F9EE" transform="translate(113,23)"/>
<path d="M0 0 C2.0625 0.4375 2.0625 0.4375 4 1 C4 2.32 4 3.64 4 5 C2.02 5 0.04 5 -2 5 C-1.125 1.125 -1.125 1.125 0 0 Z " fill="#F7F9EE" transform="translate(97,23)"/>
<path d="M0 0 C1.32 0.33 2.64 0.66 4 1 C4 2.98 4 4.96 4 7 C3.01 7 2.02 7 1 7 C0.67 4.69 0.34 2.38 0 0 Z " fill="#20182B" transform="translate(52,16)"/>
<path d="M0 0 C-3 1 -3 1 -6 1 C-6.33 2.32 -6.66 3.64 -7 5 C-7.99 5 -8.98 5 -10 5 C-9.625 2.5625 -9.625 2.5625 -9 0 C-5.93109813 -1.53445094 -3.29905734 -0.54984289 0 0 Z " fill="#3B2A34" transform="translate(22,16)"/>
<path d="M0 0 C0.99 0 1.98 0 3 0 C3.33 1.32 3.66 2.64 4 4 C5.32 4.33 6.64 4.66 8 5 C8 5.33 8 5.66 8 6 C5.69 5.67 3.38 5.34 1 5 C0.67 3.35 0.34 1.7 0 0 Z " fill="#393337" transform="translate(12,30)"/>
<path d="M0 0 C1.65 0 3.3 0 5 0 C5 1.32 5 2.64 5 4 C3.35 4.33 1.7 4.66 0 5 C0 3.35 0 1.7 0 0 Z " fill="#EFF6ED" transform="translate(63,23)"/>
</svg>
