<svg width="25" height="24" viewBox="0 0 25 24" fill="none" xmlns="http://www.w3.org/2000/svg">
<path d="M21.5181 14.8356L21.2727 15.5444L21.2727 15.5444L21.5181 14.8356ZM21.5181 9.16437L21.7635 9.8731L21.7635 9.8731L21.5181 9.16437ZM3.48189 14.8356L3.72727 15.5444L3.72727 15.5444L3.48189 14.8356ZM3.48189 9.16437L3.23652 9.8731L3.23652 9.8731L3.48189 9.16437ZM16.0303 9.53033C16.3232 9.23744 16.3232 8.76256 16.0303 8.46967C15.7374 8.17678 15.2626 8.17678 14.9697 8.46967L16.0303 9.53033ZM8.96967 14.4697C8.67678 14.7626 8.67678 15.2374 8.96967 15.5303C9.26256 15.8232 9.73744 15.8232 10.0303 15.5303L8.96967 14.4697ZM6.5 20.25C4.70507 20.25 3.25 18.7949 3.25 17H1.75C1.75 19.6234 3.87665 21.75 6.5 21.75V20.25ZM21.75 17C21.75 18.7949 20.2949 20.25 18.5 20.25V21.75C21.1234 21.75 23.25 19.6234 23.25 17H21.75ZM18.5 3.75C20.2949 3.75 21.75 5.20507 21.75 7H23.25C23.25 4.37665 21.1234 2.25 18.5 2.25V3.75ZM6.5 2.25C3.87665 2.25 1.75 4.37665 1.75 7H3.25C3.25 5.20507 4.70507 3.75 6.5 3.75V2.25ZM21.7635 14.1269C20.8815 13.8216 20.25 12.9836 20.25 12H18.75C18.75 13.6424 19.8054 15.0363 21.2727 15.5444L21.7635 14.1269ZM20.25 12C20.25 11.0164 20.8815 10.1784 21.7635 9.8731L21.2727 8.45565C19.8054 8.96367 18.75 10.3576 18.75 12H20.25ZM4.75 12C4.75 12.9836 4.11845 13.8216 3.23652 14.1269L3.72727 15.5444C5.19461 15.0363 6.25 13.6424 6.25 12H4.75ZM3.23652 9.8731C4.11845 10.1784 4.75 11.0164 4.75 12H6.25C6.25 10.3576 5.19462 8.96367 3.72727 8.45565L3.23652 9.8731ZM23.25 8V7H21.75V8H23.25ZM21.75 16V17H23.25V16H21.75ZM1.75 16V17H3.25V16H1.75ZM3.25 8V7H1.75V8H3.25ZM18.5 20.25H6.5V21.75H18.5V20.25ZM18.5 2.25H6.5V3.75H18.5V2.25ZM3.23652 14.1269C2.55785 14.3619 1.75 14.9975 1.75 16H3.25C3.25 15.9441 3.27081 15.8708 3.35172 15.7813C3.4366 15.6873 3.56974 15.5989 3.72727 15.5444L3.23652 14.1269ZM21.7635 9.8731C22.4422 9.63813 23.25 9.00246 23.25 8H21.75C21.75 8.05587 21.7292 8.12917 21.6483 8.21871C21.5634 8.31265 21.4303 8.40111 21.2727 8.45565L21.7635 9.8731ZM3.72727 8.45565C3.56974 8.40111 3.4366 8.31265 3.35172 8.21871C3.27081 8.12917 3.25 8.05587 3.25 8H1.75C1.75 9.00246 2.55785 9.63813 3.23652 9.8731L3.72727 8.45565ZM21.2727 15.5444C21.4303 15.5989 21.5634 15.6873 21.6483 15.7813C21.7292 15.8708 21.75 15.9441 21.75 16H23.25C23.25 14.9975 22.4422 14.3619 21.7635 14.1269L21.2727 15.5444ZM9.75 9C9.75 9.13807 9.63807 9.25 9.5 9.25V10.75C10.4665 10.75 11.25 9.9665 11.25 9H9.75ZM9.5 9.25C9.36193 9.25 9.25 9.13807 9.25 9H7.75C7.75 9.9665 8.5335 10.75 9.5 10.75V9.25ZM9.25 9C9.25 8.86193 9.36193 8.75 9.5 8.75V7.25C8.5335 7.25 7.75 8.0335 7.75 9H9.25ZM9.5 8.75C9.63807 8.75 9.75 8.86193 9.75 9H11.25C11.25 8.0335 10.4665 7.25 9.5 7.25V8.75ZM15.75 15C15.75 15.1381 15.6381 15.25 15.5 15.25V16.75C16.4665 16.75 17.25 15.9665 17.25 15H15.75ZM15.5 15.25C15.3619 15.25 15.25 15.1381 15.25 15H13.75C13.75 15.9665 14.5335 16.75 15.5 16.75V15.25ZM15.25 15C15.25 14.8619 15.3619 14.75 15.5 14.75V13.25C14.5335 13.25 13.75 14.0335 13.75 15H15.25ZM15.5 14.75C15.6381 14.75 15.75 14.8619 15.75 15H17.25C17.25 14.0335 16.4665 13.25 15.5 13.25V14.75ZM14.9697 8.46967L8.96967 14.4697L10.0303 15.5303L16.0303 9.53033L14.9697 8.46967Z" fill="#FEFEFE"/>
</svg>
